# MagicaVoxel @ Ephtracy

# group
g GrassLand3

# material
mtllib GrassLand3.mtl
usemtl palette

# normals
vn -1 0 0
vn 1 0 0
vn 0 0 1
vn 0 0 -1
vn 0 -1 0
vn 0 1 0

# texcoords
vt 0.970703 0.5
vt 0.974609 0.5

# verts
v -63 0 63
v -63 0 -63
v -63 2 24
v -63 2 -40
v -63 3 63
v -63 3 24
v -63 3 -40
v -63 3 -63
v 63 0 63
v 63 0 -63
v 63 3 63
v 63 3 -63
v -63 0 63
v -63 3 63
v 63 0 63
v 63 3 63
v -63 0 -63
v -63 3 -63
v -5 2 -63
v -5 3 -63
v 33 2 -63
v 33 3 -63
v 63 0 -63
v 63 3 -63
v -63 0 63
v 63 0 63
v -63 0 -63
v 63 0 -63
v -63 3 63
v 63 3 63
v -23 3 49
v -13 3 49
v -52 3 35
v -23 3 35
v -23 3 29
v -13 3 29
v -63 3 24
v -52 3 24
v -40 3 24
v -23 3 24
v 10 3 -13
v 25 3 -13
v -51 3 -14
v -40 3 -14
v -9 3 -31
v 10 3 -31
v 25 3 -31
v 40 3 -31
v -27 3 -38
v -9 3 -38
v 16 3 -38
v 40 3 -38
v -63 3 -40
v -51 3 -40
v -27 3 -54
v -5 3 -54
v 16 3 -54
v 33 3 -54
v -63 3 -63
v -5 3 -63
v 33 3 -63
v 63 3 -63

# faces
f 3/1/1 2/1/1 1/1/1
f 4/1/1 2/1/1 3/1/1
f 5/1/1 3/1/1 1/1/1
f 6/2/1 4/2/1 3/2/1
f 6/1/1 3/1/1 5/1/1
f 7/1/1 2/1/1 4/1/1
f 7/2/1 4/2/1 6/2/1
f 8/1/1 2/1/1 7/1/1
f 9/1/2 10/1/2 11/1/2
f 11/1/2 10/1/2 12/1/2
f 15/1/3 14/1/3 13/1/3
f 16/1/3 14/1/3 15/1/3
f 17/1/4 18/1/4 19/1/4
f 19/1/4 18/1/4 20/1/4
f 17/1/4 19/1/4 21/1/4
f 19/2/4 20/2/4 21/2/4
f 21/2/4 20/2/4 22/2/4
f 17/1/4 21/1/4 23/1/4
f 21/1/4 22/1/4 23/1/4
f 23/1/4 22/1/4 24/1/4
f 27/1/5 26/1/5 25/1/5
f 28/1/5 26/1/5 27/1/5
f 29/1/6 30/1/6 31/1/6
f 31/1/6 30/1/6 32/1/6
f 29/1/6 31/1/6 33/1/6
f 31/2/6 32/2/6 34/2/6
f 33/1/6 31/1/6 34/1/6
f 33/2/6 34/2/6 35/2/6
f 34/2/6 32/2/6 35/2/6
f 32/1/6 30/1/6 36/1/6
f 35/2/6 32/2/6 36/2/6
f 29/1/6 33/1/6 37/1/6
f 33/2/6 35/2/6 38/2/6
f 37/1/6 33/1/6 38/1/6
f 38/2/6 35/2/6 39/2/6
f 35/1/6 36/1/6 40/1/6
f 39/2/6 35/2/6 40/2/6
f 36/1/6 30/1/6 41/1/6
f 40/1/6 36/1/6 41/1/6
f 39/1/6 40/1/6 41/1/6
f 41/1/6 30/1/6 42/1/6
f 37/2/6 38/2/6 43/2/6
f 38/2/6 39/2/6 43/2/6
f 39/1/6 41/1/6 44/1/6
f 43/2/6 39/2/6 44/2/6
f 43/1/6 44/1/6 45/1/6
f 44/1/6 41/1/6 45/1/6
f 41/2/6 42/2/6 46/2/6
f 45/1/6 41/1/6 46/1/6
f 42/1/6 30/1/6 47/1/6
f 46/2/6 42/2/6 47/2/6
f 47/1/6 30/1/6 48/1/6
f 43/1/6 45/1/6 49/1/6
f 45/2/6 46/2/6 50/2/6
f 49/1/6 45/1/6 50/1/6
f 46/2/6 47/2/6 50/2/6
f 47/2/6 48/2/6 50/2/6
f 50/2/6 48/2/6 51/2/6
f 48/1/6 30/1/6 52/1/6
f 51/2/6 48/2/6 52/2/6
f 37/2/6 43/2/6 53/2/6
f 43/1/6 49/1/6 54/1/6
f 53/2/6 43/2/6 54/2/6
f 50/2/6 51/2/6 55/2/6
f 54/1/6 49/1/6 55/1/6
f 53/1/6 54/1/6 55/1/6
f 49/2/6 50/2/6 55/2/6
f 55/2/6 51/2/6 56/2/6
f 51/1/6 52/1/6 57/1/6
f 56/2/6 51/2/6 57/2/6
f 57/1/6 52/1/6 58/1/6
f 55/1/6 56/1/6 59/1/6
f 53/1/6 55/1/6 59/1/6
f 57/2/6 58/2/6 60/2/6
f 59/1/6 56/1/6 60/1/6
f 56/2/6 57/2/6 60/2/6
f 58/1/6 52/1/6 61/1/6
f 60/2/6 58/2/6 61/2/6
f 52/1/6 30/1/6 62/1/6
f 61/1/6 52/1/6 62/1/6
